<svg xmlns="http://www.w3.org/2000/svg" width="1024" height="1024" viewBox="0 0 1024 1024" version="1.1"><path d="M 533.263 620.572 C 531.609 622.400, 530.398 622.887, 528.616 622.440 C 526.215 621.837, 517.322 626.041, 505.750 633.250 L 501 636.208 501 650.412 L 501 664.615 505.750 667.983 C 516.494 675.599, 540.250 690, 542.071 690 C 543.147 690, 544.809 689.588, 545.764 689.085 C 546.719 688.582, 550.605 687.389, 554.400 686.434 C 566.544 683.377, 570.359 681.672, 571.113 678.966 C 571.491 677.610, 571.845 669.272, 571.900 660.439 C 571.987 646.438, 571.775 644.128, 570.245 642.439 C 569.279 641.372, 566.917 638.644, 564.995 636.376 C 560.768 631.387, 550.679 622.886, 546.355 620.670 C 544.625 619.783, 541.475 618.842, 539.355 618.578 C 536.175 618.183, 535.109 618.532, 533.263 620.572 M 465.300 621.951 C 454.204 626.988, 441.408 637.950, 434.300 648.507 C 430.590 654.017, 430.271 655.011, 430.447 660.507 C 430.552 663.803, 430.720 671.797, 430.819 678.271 C 431.037 692.443, 430.055 691.610, 448 692.865 C 461.900 693.838, 463.327 693.497, 468.500 687.977 C 470.150 686.215, 476.569 680.509, 482.764 675.296 C 488.959 670.083, 494.412 665.071, 494.881 664.159 C 495.351 663.246, 495.825 656.322, 495.936 648.771 L 496.136 635.043 487.762 629.641 C 479.181 624.105, 471.693 619.983, 470.290 620.022 C 469.855 620.034, 467.610 620.902, 465.300 621.951 M 562 690.073 C 558.975 691.090, 553.800 692.651, 550.500 693.543 C 547.200 694.435, 543.825 695.514, 543 695.941 C 541.395 696.772, 538.789 706.012, 536.072 720.500 C 535.454 723.800, 534.509 728.419, 533.974 730.764 C 531.985 739.473, 532.386 740.597, 540.750 749.772 C 545.013 754.447, 549.744 759.649, 551.264 761.332 C 553.922 764.274, 554.172 764.343, 557.764 763.138 C 566.410 760.237, 574.948 756.332, 581.691 752.195 C 588.371 748.096, 588.992 747.417, 590.429 742.641 C 591.984 737.471, 595 718.403, 595 713.742 C 595 711.923, 591.976 708.075, 583.903 699.621 C 571.584 686.721, 571.755 686.795, 562 690.073 M 430.490 697.791 C 428.986 698.862, 424.642 705.675, 420.515 713.437 C 416.471 721.039, 416.377 722.674, 419.372 733.314 C 422.594 744.764, 433.394 763.425, 437.306 764.304 C 438.513 764.575, 442.650 765.312, 446.500 765.942 C 450.350 766.572, 455.750 767.476, 458.500 767.951 C 464.585 769.002, 464.760 768.845, 468.492 759 C 470.056 754.875, 472.385 749.821, 473.668 747.770 C 476.029 743.993, 476.657 740.184, 475.204 738.450 C 474.766 737.928, 473.815 735.700, 473.089 733.500 C 472.363 731.300, 471.199 728.150, 470.502 726.500 C 469.805 724.850, 468.664 721.925, 467.967 720 C 467.270 718.075, 466.147 715.150, 465.472 713.500 C 464.797 711.850, 463.323 708.250, 462.198 705.500 L 460.151 700.500 451.826 699.400 C 437.495 697.508, 431.521 697.057, 430.490 697.791 M 494.457 745.084 C 484.137 746.006, 480.218 747.211, 479.322 749.735 C 478.978 750.706, 478.163 752.175, 477.512 753 C 476.861 753.825, 474.832 758.189, 473.003 762.699 L 469.678 770.898 473.828 776.199 C 476.111 779.114, 481.318 785.041, 485.401 789.370 L 492.823 797.239 509.162 796.729 C 518.148 796.449, 527.075 795.674, 529 795.009 C 531.584 794.115, 533.808 791.936, 537.500 786.683 C 543.443 778.225, 548 770.230, 548 768.262 C 548 766.901, 543.064 760.844, 532.605 749.370 L 527.710 744 515.605 744.138 C 508.947 744.213, 499.431 744.639, 494.457 745.084" stroke="none" fill="none" fill-rule="evenodd"/><path d="M 452 39.063 C 448.975 39.507, 439.075 40.370, 430 40.981 C 420.925 41.592, 410.125 42.520, 406 43.043 C 401.875 43.566, 395.800 44.280, 392.500 44.630 C 389.200 44.980, 386.050 45.610, 385.500 46.031 C 384.950 46.452, 380.106 47.121, 374.735 47.518 C 369.364 47.915, 364.725 48.636, 364.426 49.120 C 364.127 49.604, 361.959 50, 359.608 50 C 357.257 50, 354.998 50.338, 354.587 50.750 C 354.177 51.163, 350.164 52.034, 345.671 52.687 C 335.465 54.171, 330.922 54.992, 329 55.703 C 327.470 56.268, 327.053 56.344, 318.727 57.565 C 316.102 57.950, 313.713 58.656, 313.418 59.133 C 313.123 59.610, 311.360 60, 309.500 60 C 307.640 60, 305.873 60.397, 305.573 60.882 C 305.273 61.367, 302.101 62.077, 298.524 62.460 C 294.948 62.844, 291.765 63.572, 291.452 64.078 C 291.138 64.585, 289.585 65, 288 65 C 286.415 65, 284.872 65.397, 284.572 65.883 C 284.272 66.369, 281.553 67.075, 278.529 67.453 C 275.505 67.831, 272.773 68.558, 272.457 69.070 C 272.141 69.581, 270.810 70, 269.500 70 C 268.190 70, 266.840 70.450, 266.500 71 C 266.160 71.550, 264.810 72, 263.500 72 C 262.190 72, 260.829 72.468, 260.475 73.041 C 260.121 73.613, 259.007 73.820, 258 73.500 C 256.993 73.180, 255.879 73.387, 255.525 73.959 C 255.171 74.532, 254.002 75, 252.927 75 C 251.852 75, 250.191 75.418, 249.236 75.928 C 248.281 76.438, 245.025 77.581, 242 78.466 C 238.975 79.352, 235.600 80.478, 234.500 80.967 C 233.400 81.457, 230.025 82.604, 227 83.518 C 223.975 84.431, 219.700 85.979, 217.500 86.959 C 215.300 87.938, 212.375 89.051, 211 89.432 C 208.510 90.123, 204.882 91.552, 201.967 92.990 C 201.124 93.405, 198.987 94.064, 197.217 94.452 C 195.448 94.841, 194 95.464, 194 95.836 C 194 96.208, 192.087 97.108, 189.750 97.834 C 187.412 98.561, 184.037 99.795, 182.250 100.578 C 180.463 101.360, 177.469 102.675, 175.599 103.500 C 173.728 104.325, 171.942 105, 171.629 105 C 171.315 105, 168.458 106.214, 165.280 107.697 C 162.101 109.180, 158.938 110.285, 158.250 110.153 C 157.563 110.021, 157 110.272, 157 110.712 C 157 111.152, 155.537 112.124, 153.750 112.871 C 148.554 115.045, 123.550 127.282, 123 127.920 C 122.725 128.239, 120.475 129.493, 118 130.706 C 111.464 133.911, 105.550 137.387, 105.167 138.250 C 104.983 138.662, 104.372 139, 103.809 139 C 103.245 139, 99.420 141.250, 95.308 144 C 91.196 146.750, 87.613 149, 87.345 149 C 87.077 149, 86.210 149.648, 85.418 150.439 C 84.177 151.681, 84.028 170.856, 84.332 290.189 C 84.577 386.657, 85.052 433.189, 85.901 444 C 86.571 452.525, 87.259 461.750, 87.430 464.500 C 87.788 470.247, 89.401 483.322, 91.007 493.500 C 91.615 497.350, 92.292 502.075, 92.511 504 C 92.907 507.480, 93.951 513.487, 95.987 524 C 96.573 527.025, 97.040 530.578, 97.025 531.896 C 97.010 533.214, 97.395 534.789, 97.881 535.396 C 98.366 536.003, 99.020 538.075, 99.334 540 C 100.593 547.713, 101.296 550.556, 102.238 551.737 C 102.780 552.418, 102.941 553.712, 102.595 554.614 C 102.249 555.516, 102.461 556.850, 103.066 557.579 C 103.671 558.308, 104.336 559.938, 104.544 561.202 C 105.312 565.861, 106.288 569.527, 107.021 570.500 C 107.435 571.050, 108.105 573.508, 108.511 575.962 C 108.916 578.415, 109.629 581.115, 110.096 581.962 C 110.562 582.808, 112.267 587.550, 113.885 592.500 C 115.503 597.450, 117.390 602.850, 118.079 604.500 C 118.769 606.150, 119.420 607.725, 119.526 608 C 119.633 608.275, 120.065 609.962, 120.485 611.750 C 120.906 613.537, 121.644 615, 122.125 615 C 122.606 615, 123 615.719, 123 616.599 C 123 618.189, 124.068 620.850, 128.619 630.600 C 129.929 633.404, 131 636.260, 131 636.945 C 131 637.631, 131.841 639.386, 132.869 640.846 C 133.897 642.306, 135.060 644.625, 135.454 646 C 135.848 647.375, 138.236 652.699, 140.762 657.832 C 143.419 663.232, 144.949 667.445, 144.392 667.832 C 142.952 668.833, 136 679.675, 136 680.919 C 136 681.514, 135.644 682, 135.208 682 C 134.773 682, 133.746 683.462, 132.926 685.250 C 130.984 689.482, 125.667 699.358, 124.983 700 C 124.691 700.275, 123.337 702.750, 121.976 705.500 C 120.614 708.250, 119.248 710.725, 118.939 711 C 118.630 711.275, 116.625 714.425, 114.483 718 C 112.341 721.575, 110.006 725.095, 109.294 725.821 C 108.582 726.548, 108 727.460, 108 727.849 C 108 728.237, 106.728 729.947, 105.173 731.649 C 103.618 733.352, 101.479 735.814, 100.419 737.122 C 97.501 740.722, 89.818 746.623, 87 747.428 C 72.539 751.560, 61 763.260, 61 773.790 C 61 778.365, 64.254 786.776, 66.332 787.574 C 67.012 787.835, 68.668 790.062, 70.013 792.524 C 71.358 794.986, 72.805 797, 73.229 797 C 73.653 797, 74 797.862, 74 798.917 C 74 799.971, 74.382 800.983, 74.848 801.167 C 75.580 801.454, 77.893 805.255, 81.792 812.579 C 82.355 813.635, 84.950 818.888, 87.560 824.250 C 90.169 829.612, 92.655 834, 93.085 834 C 93.514 834, 94.132 834.841, 94.458 835.868 C 95.643 839.601, 103.856 846.966, 111.262 850.936 C 117.450 854.254, 119.836 855, 124.256 855 C 129.053 855, 129.985 854.646, 132.440 851.890 C 134.777 849.268, 135.220 847.863, 135.267 842.936 C 135.297 839.722, 134.838 836.509, 134.248 835.796 C 131.918 832.984, 124 816.389, 124 814.318 C 124 813.108, 123.608 811.876, 123.129 811.580 C 120.131 809.727, 120.182 783.129, 123.192 779.324 C 123.703 778.677, 124.023 777.552, 123.903 776.824 C 123.679 775.468, 124.257 773.551, 126.324 768.795 C 127.550 765.975, 141.624 751, 143.048 751 C 143.497 751, 146.482 748.428, 149.682 745.284 C 152.882 742.140, 156.506 738.850, 157.736 737.973 C 158.966 737.095, 162.797 733.705, 166.248 730.439 C 177.555 719.738, 176.311 720.189, 179.891 725.494 C 181.601 728.027, 183 730.322, 183 730.594 C 183 730.865, 184.125 732.301, 185.500 733.783 C 186.875 735.266, 188 736.838, 188 737.276 C 188 737.713, 189.013 739.206, 190.250 740.592 C 191.488 741.979, 193.450 744.170, 194.610 745.462 C 195.771 746.754, 197.720 749.428, 198.942 751.405 C 200.163 753.382, 201.565 755, 202.056 755 C 202.547 755, 203.590 756.237, 204.373 757.750 C 205.157 759.263, 207.081 761.934, 208.649 763.686 C 210.217 765.438, 213.975 769.861, 217 773.514 C 220.025 777.167, 224.551 782.359, 227.057 785.053 C 229.563 787.746, 233.770 792.422, 236.407 795.444 C 243.133 803.155, 269.087 829.012, 274.750 833.644 C 277.342 835.765, 281.515 839.525, 284.022 842 C 286.530 844.475, 291.653 848.975, 295.407 852 C 299.161 855.025, 305.790 860.538, 310.138 864.250 C 314.487 867.963, 318.391 871, 318.814 871 C 319.237 871, 321.222 872.462, 323.226 874.250 C 328.521 878.975, 336.926 885.476, 346.291 892.090 C 350.806 895.279, 354.950 898.251, 355.501 898.694 C 359.176 901.653, 363.973 905, 364.539 905 C 364.909 905, 366.486 906.012, 368.043 907.250 C 372.462 910.761, 375.899 913.068, 376.553 912.964 C 376.882 912.912, 377.958 913.798, 378.943 914.934 C 379.928 916.070, 381.004 917, 381.334 917 C 381.663 917, 387.065 920.375, 393.338 924.500 C 399.611 928.625, 405.251 932, 405.872 932 C 406.492 932, 407 932.378, 407 932.839 C 407 933.301, 408.795 934.538, 410.989 935.589 C 413.182 936.640, 414.982 937.837, 414.989 938.250 C 414.995 938.663, 415.620 939, 416.378 939 C 417.135 939, 418.315 939.675, 419 940.500 C 419.685 941.325, 421.090 942, 422.122 942 C 423.155 942, 424 942.378, 424 942.839 C 424 943.301, 425.795 944.538, 427.989 945.589 C 430.182 946.640, 431.982 947.837, 431.989 948.250 C 431.995 948.663, 432.900 949, 434 949 C 435.100 949, 436 949.450, 436 950 C 436 950.550, 436.513 951, 437.139 951 C 437.766 951, 440.473 952.350, 443.154 954 C 445.836 955.650, 448.661 957, 449.432 957 C 450.203 957, 450.983 957.337, 451.167 957.750 C 451.569 958.656, 457.217 961.882, 466 966.224 C 469.575 967.991, 472.725 969.676, 473.001 969.968 C 473.569 970.571, 478.166 973.127, 485.500 976.917 C 488.250 978.337, 490.650 979.837, 490.833 980.250 C 491.017 980.662, 491.559 981, 492.039 981 C 492.519 981, 495.276 982.394, 498.165 984.097 C 502.286 986.527, 504.162 987.073, 506.878 986.632 C 508.781 986.324, 510.600 985.692, 510.919 985.229 C 511.239 984.765, 512.962 983.795, 514.750 983.072 C 516.538 982.349, 518 981.335, 518 980.820 C 518 980.304, 518.453 980.162, 519.007 980.504 C 519.561 980.846, 521.248 980.257, 522.757 979.194 C 524.266 978.132, 526.625 976.919, 528 976.500 C 529.375 976.081, 531.625 974.964, 533 974.019 C 534.375 973.074, 538.875 970.636, 543 968.600 C 547.125 966.565, 552.068 964.022, 553.984 962.950 C 555.901 961.877, 558.038 961, 558.734 961 C 559.430 961, 560 960.550, 560 960 C 560 959.450, 560.675 959, 561.500 959 C 562.325 959, 563 958.550, 563 958 C 563 957.450, 563.608 957, 564.351 957 C 565.565 957, 569.679 955.009, 578.500 950.152 C 580.150 949.243, 581.725 948.275, 582 948 C 582.551 947.449, 585.909 945.492, 590.454 943.072 C 592.079 942.208, 594.024 940.938, 594.776 940.250 C 595.528 939.562, 596.786 939, 597.571 939 C 598.357 939, 599 938.602, 599 938.117 C 599 937.631, 599.788 936.969, 600.750 936.646 C 602.451 936.075, 605.990 934.010, 607 933 C 607.761 932.239, 611.137 930.239, 614.704 928.436 C 616.466 927.545, 618.434 926.182, 619.076 925.408 C 619.719 924.634, 620.644 924, 621.133 924 C 621.621 924, 624.261 922.425, 627 920.500 C 629.739 918.575, 632.228 917, 632.532 917 C 632.836 917, 633.628 916.557, 634.292 916.015 C 639.665 911.634, 641.884 910, 642.461 910 C 643.336 910, 650.399 904.727, 650.833 903.750 C 651.017 903.337, 651.734 903, 652.428 903 C 653.122 903, 654.505 902.100, 655.500 901 C 656.495 899.900, 657.727 899, 658.237 899 C 659.252 899, 668.296 891.958, 668.833 890.750 C 669.017 890.337, 669.696 890, 670.344 890 C 670.991 890, 672.734 888.875, 674.217 887.500 C 675.699 886.125, 677.215 885, 677.585 885 C 677.955 885, 679.946 883.538, 682.009 881.750 C 684.073 879.962, 688.063 876.700, 690.877 874.500 C 693.690 872.300, 697.906 868.813, 700.246 866.750 C 702.585 864.688, 704.765 863, 705.090 863 C 705.416 863, 707.465 861.313, 709.644 859.250 C 711.823 857.188, 716.906 852.800, 720.939 849.500 C 724.973 846.200, 729.674 842.164, 731.386 840.531 C 733.099 838.899, 737.875 834.584, 742 830.943 C 750.421 823.511, 769.597 804.107, 776.040 796.500 C 778.369 793.750, 781.900 789.916, 783.887 787.981 C 787.256 784.699, 793.642 777.212, 803.720 764.728 C 806.041 761.852, 808.819 758.584, 809.893 757.464 C 810.968 756.345, 812.404 754.207, 813.084 752.714 C 813.764 751.222, 814.600 750, 814.941 750 C 815.282 750, 817.347 747.495, 819.530 744.434 C 821.714 741.373, 824.288 737.929, 825.250 736.781 C 826.212 735.633, 827 734.398, 827 734.036 C 827 733.673, 827.791 732.505, 828.758 731.439 C 829.725 730.372, 831.324 728.241, 832.312 726.702 L 834.109 723.905 839.289 728.202 C 842.138 730.566, 845.151 733.035, 845.985 733.688 C 846.818 734.342, 849.455 736.480, 851.845 738.438 C 854.234 740.397, 856.616 742, 857.138 742 C 857.660 742, 859.254 743.082, 860.680 744.404 C 862.106 745.726, 864.442 747.413, 865.872 748.154 C 867.302 748.894, 869.378 750.175, 870.486 751 C 873.131 752.970, 890.852 770.929, 893.793 774.622 C 900.712 783.305, 900.375 782.137, 900.226 796.889 C 899.979 821.432, 898.740 827.754, 891.963 839.028 C 889.805 842.618, 887.750 846.999, 887.398 848.762 C 886.131 855.097, 891.966 862, 898.588 862 C 901.232 862, 912.602 857.250, 915.297 855.019 C 917.916 852.851, 925.277 845.566, 926.724 843.710 C 927.397 842.847, 931.265 835.696, 935.320 827.820 C 942.633 813.613, 949.049 803.307, 955.422 795.530 C 960.881 788.868, 963 784.063, 963 778.347 C 963 772.232, 959.666 764.815, 955.080 760.729 C 951.890 757.886, 943.899 753.693, 939.630 752.622 C 935.144 751.496, 912 731.812, 912 729.123 C 912 728.720, 910.538 726.729, 908.750 724.698 C 906.962 722.667, 904.242 719.317, 902.705 717.253 C 895.010 706.922, 893 704.064, 893 703.454 C 893 703.088, 891.868 701.374, 890.485 699.644 C 887.076 695.382, 886.782 694.951, 884.582 690.970 C 882.933 687.985, 881.389 685.804, 877.155 680.474 C 876.706 679.910, 875.476 678.110, 874.420 676.474 C 873.364 674.839, 871.962 672.826, 871.304 672 C 865.893 665.214, 866 666.554, 870.190 658.133 C 872.279 653.935, 873.990 649.975, 873.994 649.333 C 873.997 648.692, 874.356 648.017, 874.790 647.833 C 875.656 647.468, 881 636.482, 881 635.067 C 881 634.584, 881.873 632.459, 882.941 630.345 C 884.008 628.230, 885.636 624.700, 886.559 622.500 C 887.482 620.300, 888.859 617.082, 889.619 615.349 C 890.378 613.616, 891 611.788, 891 611.287 C 891 610.786, 891.871 608.573, 892.935 606.370 C 893.999 604.168, 895.186 601.046, 895.573 599.433 C 895.960 597.820, 896.612 596.050, 897.022 595.500 C 897.433 594.950, 898.072 592.925, 898.443 591 C 899.089 587.644, 900.220 584.492, 902.117 580.764 C 902.603 579.809, 903 578.148, 903 577.073 C 903 575.998, 903.398 574.872, 903.885 574.571 C 904.371 574.271, 905.088 571.882, 905.478 569.262 C 905.868 566.643, 906.535 564.050, 906.959 563.500 C 907.384 562.950, 907.986 561.375, 908.297 560 C 908.608 558.625, 909.359 555.527, 909.966 553.116 C 910.573 550.705, 911.263 547.555, 911.498 546.116 C 911.733 544.677, 912.419 541.475, 913.022 539 C 913.624 536.525, 914.296 533.044, 914.515 531.265 C 914.734 529.486, 915.381 527.156, 915.953 526.088 C 916.525 525.019, 916.710 523.407, 916.364 522.505 C 916.017 521.603, 916.216 519.883, 916.805 518.683 C 917.394 517.482, 918.086 514.925, 918.343 513 C 918.599 511.075, 919.369 506.350, 920.054 502.500 C 920.739 498.650, 921.450 493.700, 921.635 491.500 C 921.820 489.300, 922.430 483.900, 922.991 479.500 C 924.565 467.140, 926.212 450.328, 926.714 441.500 C 926.964 437.100, 927.368 370.246, 927.611 292.935 L 928.053 152.371 920.487 147.185 C 916.325 144.333, 912.692 142, 912.412 142 C 912.133 142, 909.551 140.537, 906.676 138.750 C 903.801 136.963, 899.210 134.375, 896.474 133 C 893.738 131.625, 891.275 130.275, 891 130 C 889.160 128.160, 854.411 111.125, 846 107.939 C 844.075 107.210, 842.275 106.363, 842 106.057 C 841.361 105.345, 835.186 102.954, 832.250 102.282 C 831.013 101.999, 830 101.409, 830 100.971 C 830 100.534, 828.200 99.872, 826 99.500 C 823.800 99.128, 822 98.414, 822 97.912 C 822 97.410, 821.190 97, 820.200 97 C 819.210 97, 817.973 96.624, 817.450 96.165 C 816.928 95.706, 814.250 94.538, 811.500 93.570 C 808.750 92.601, 804.637 90.973, 802.360 89.951 C 800.084 88.929, 796.934 87.812, 795.360 87.469 C 792.409 86.825, 791.076 86.334, 784.849 83.602 C 782.841 82.721, 780.591 81.993, 779.849 81.985 C 778.113 81.966, 771.247 79.580, 770.352 78.685 C 769.975 78.308, 768.729 77.997, 767.583 77.994 C 766.437 77.990, 764.211 77.315, 762.636 76.494 C 761.060 75.672, 758.724 75, 757.445 75 C 756.165 75, 754.864 74.589, 754.554 74.087 C 754.243 73.585, 752.079 72.884, 749.745 72.530 C 747.410 72.176, 744.600 71.497, 743.500 71.021 C 741.583 70.192, 736.600 68.772, 734.500 68.457 C 733.950 68.374, 732.825 68.049, 732 67.734 C 731.175 67.420, 729.375 66.932, 728 66.651 C 726.625 66.369, 723.700 65.623, 721.500 64.991 C 717.532 63.853, 708.265 61.644, 702.500 60.464 C 700.850 60.126, 698.600 59.471, 697.500 59.008 C 696.400 58.546, 691.450 57.430, 686.500 56.528 C 681.550 55.627, 676.150 54.505, 674.500 54.036 C 671.609 53.214, 664.195 51.943, 659 51.378 C 657.625 51.228, 654.025 50.592, 651 49.964 C 647.975 49.336, 643.700 48.682, 641.500 48.512 C 639.300 48.342, 636.825 47.950, 636 47.642 C 635.175 47.334, 632.475 46.902, 630 46.682 C 627.525 46.463, 624.825 46.032, 624 45.726 C 622.125 45.029, 611.146 43.737, 604.465 43.427 C 601.695 43.298, 597.543 42.685, 595.236 42.064 C 592.930 41.443, 589.571 40.986, 587.771 41.049 C 585.972 41.112, 577.750 40.603, 569.500 39.920 C 552.325 38.496, 460.432 37.826, 452 39.063 M 465.500 88.420 C 464.950 88.633, 457.075 89.313, 448 89.932 C 430.547 91.122, 418.776 92.246, 400 94.515 C 383.826 96.469, 381.217 96.839, 375 98.061 C 371.975 98.655, 365.450 99.758, 360.500 100.511 C 348.444 102.346, 330.226 105.832, 326.429 107.030 C 324.740 107.564, 322.404 108, 321.238 108 C 320.072 108, 318.877 108.391, 318.581 108.868 C 318.286 109.346, 315.227 110.055, 311.782 110.445 C 308.338 110.835, 305.065 111.513, 304.510 111.951 C 303.954 112.390, 302.150 112.998, 300.500 113.302 C 293.735 114.549, 287.443 116.264, 286.550 117.105 C 286.028 117.597, 284.367 118, 282.859 118 C 281.351 118, 279.840 118.450, 279.500 119 C 279.160 119.550, 278.024 120, 276.976 120 C 274.866 120, 266.418 122.555, 263.873 123.963 C 262.978 124.458, 260.503 125.178, 258.373 125.562 C 256.243 125.946, 254.050 126.578, 253.500 126.966 C 252.950 127.354, 249.800 128.479, 246.500 129.464 C 243.200 130.450, 240.073 131.649, 239.550 132.129 C 239.028 132.608, 237.655 133, 236.500 133 C 235.345 133, 233.972 133.391, 233.450 133.869 C 232.927 134.346, 230.250 135.526, 227.500 136.491 C 224.750 137.456, 220.637 139.069, 218.360 140.076 C 216.084 141.083, 212.976 142.219, 211.454 142.601 C 209.933 142.983, 205.742 144.804, 202.142 146.648 C 198.541 148.491, 195.005 150, 194.284 150 C 193.563 150, 192.191 150.451, 191.236 151.001 C 190.281 151.552, 186.575 153.274, 183 154.827 C 179.425 156.380, 175.037 158.290, 173.250 159.070 C 171.463 159.850, 170 160.828, 170 161.244 C 170 161.660, 169.438 162.004, 168.750 162.009 C 167.383 162.019, 140.333 175.428, 135.500 178.493 C 133.850 179.539, 132.379 180.464, 132.232 180.549 C 132.084 180.634, 131.975 226.783, 131.989 283.102 C 132.013 380.665, 131.926 385.741, 130.145 390.610 C 128.028 396.394, 122.530 404.290, 119.424 406.005 C 117.563 407.033, 113.956 413.141, 111.159 420 C 106.594 431.197, 105.962 450.158, 109.882 458.257 C 114.147 467.067, 126.189 475, 135.298 475 C 138.206 475, 138.491 475.659, 139.408 484.500 C 140.366 493.746, 145.109 523.174, 146.903 531 C 147.470 533.475, 148.647 538.650, 149.520 542.500 C 152.350 554.992, 152.721 556.437, 154.280 561 C 155.126 563.475, 156.110 567.075, 156.467 569 C 156.824 570.925, 157.519 573.400, 158.011 574.500 C 158.503 575.600, 160.285 580.775, 161.971 586 C 163.657 591.225, 165.441 596.400, 165.935 597.500 C 166.428 598.600, 167.430 600.962, 168.160 602.750 C 168.891 604.538, 169.828 606, 170.244 606 C 170.660 606, 171 606.723, 171 607.607 C 171 608.491, 172.397 612.142, 174.105 615.720 C 175.813 619.299, 177.319 622.738, 177.451 623.363 C 177.973 625.823, 179.930 629.839, 180.898 630.437 C 181.459 630.784, 182.724 630.646, 183.709 630.131 C 184.694 629.616, 187.525 628.603, 190 627.880 C 195.553 626.257, 201.292 620.668, 202.549 615.659 C 202.896 614.278, 204.039 612.369, 205.090 611.419 C 206.140 610.468, 207 609.085, 207 608.345 C 207 607.605, 207.514 607, 208.142 607 C 208.942 607, 209.097 605.199, 208.658 601.007 C 208.076 595.429, 209.134 587.175, 211.033 582.500 C 211.479 581.400, 212.602 578.250, 213.528 575.500 C 214.454 572.750, 215.586 569.600, 216.043 568.500 C 216.500 567.400, 217.185 565.375, 217.566 564 C 217.946 562.625, 220.044 557.675, 222.228 553 C 224.413 548.325, 226.796 543.150, 227.525 541.500 C 228.254 539.850, 230.049 535.813, 231.513 532.529 C 233.180 528.789, 233.769 526.423, 233.087 526.196 C 232.489 525.996, 232 524.997, 232 523.976 C 232 522.954, 231.550 521.840, 231 521.500 C 230.450 521.160, 230 519.964, 230 518.842 C 230 517.720, 229.356 515.384, 228.568 513.651 C 227.781 511.918, 226.885 508.250, 226.578 505.500 C 226.270 502.750, 225.732 497.868, 225.382 494.651 C 225.031 491.424, 225.215 487.165, 225.793 485.151 C 226.370 483.143, 227.637 477.900, 228.609 473.500 C 229.582 469.100, 230.743 465.072, 231.189 464.550 C 231.635 464.027, 232 462.802, 232 461.827 C 232 460.340, 235.031 452.756, 237.926 447 C 241.399 440.094, 245.930 432.799, 251.511 425.130 C 252.889 423.236, 254.248 419.612, 254.613 416.857 C 254.971 414.161, 255.654 411.714, 256.132 411.419 C 256.609 411.123, 257 409.585, 257 408 C 257 406.415, 257.391 404.877, 257.868 404.581 C 258.346 404.286, 259.045 401.222, 259.422 397.772 C 259.798 394.323, 260.502 390.150, 260.985 388.500 C 262.935 381.845, 267.635 361.405, 269.092 353.239 C 269.609 350.345, 270.743 345.395, 271.612 342.239 C 273.702 334.654, 275.060 328.847, 275.177 327 C 275.230 326.175, 275.716 324.938, 276.259 324.250 C 278.168 321.830, 272.642 323.431, 261.223 328.608 C 258.320 329.923, 255.309 331, 254.532 331 C 253.754 331, 252.840 331.450, 252.500 332 C 252.160 332.550, 249.460 333, 246.500 333 C 243.540 333, 240.840 332.550, 240.500 332 C 239.017 329.600, 227.828 332.955, 223.550 337.083 C 223.028 337.588, 221.769 338, 220.752 338 C 218.804 338, 209 347.149, 209 348.968 C 209 349.859, 199.713 363.442, 198.037 365 C 196.181 366.727, 174 399.897, 174 400.946 C 174 401.526, 173.662 402.005, 173.250 402.011 C 171.958 402.031, 169.215 409.242, 168.118 415.500 C 167.539 418.800, 166.781 426.675, 166.434 433 C 165.982 441.221, 165.260 445.623, 163.901 448.438 C 162.855 450.604, 162 452.713, 162 453.126 C 162 455.012, 155.950 460.172, 150.500 462.934 C 143.943 466.257, 136.318 466.917, 130.407 464.674 C 126.929 463.354, 121 458.630, 121 457.179 C 121 456.656, 120.328 454.940, 119.506 453.364 C 117.432 449.387, 117.548 436.121, 119.722 428.799 C 120.669 425.610, 121.794 423, 122.222 423 C 122.650 423, 123.002 422.438, 123.004 421.750 C 123.015 418.509, 129.880 407.174, 135.416 401.256 C 139.390 397.008, 141.534 393.556, 144.271 387 C 147.949 378.191, 148.528 377, 149.136 377 C 149.492 377, 150.087 375.763, 150.458 374.250 C 150.829 372.738, 152.228 369.137, 153.567 366.250 C 154.905 363.363, 157.162 358.413, 158.581 355.250 C 161.285 349.226, 167.999 335.666, 172.073 328 C 175.335 321.862, 188.598 308.818, 199.500 301.027 C 204.450 297.489, 210.525 292.996, 213 291.043 C 215.475 289.090, 218.227 287.044, 219.115 286.496 C 220.003 285.948, 223.153 283.925, 226.115 282 C 237.974 274.292, 274.717 257.758, 285.013 255.497 C 286.895 255.084, 289.124 254.408, 289.967 253.996 C 292.657 252.679, 298.794 250.917, 304.228 249.900 C 307.128 249.357, 311.525 248.489, 314 247.971 C 316.475 247.453, 322.775 246.558, 328 245.982 C 333.225 245.406, 340.512 244.499, 344.193 243.967 C 347.874 243.435, 353.078 243, 355.757 243 C 360.437 243, 360.715 242.839, 362.814 238.905 C 364.953 234.899, 365.850 226.183, 364.285 224.618 C 361.302 221.635, 359.707 191.765, 362.120 184.071 C 364.697 175.854, 368.487 168.852, 373.450 163.140 C 376.548 159.575, 384.923 154.536, 390.173 153.080 C 396.651 151.283, 414.402 151.163, 420 152.880 C 429.597 155.822, 433.615 157.471, 436.594 159.693 C 438.296 160.962, 440.108 162, 440.619 162 C 442.010 162, 455.434 176.115, 456.786 179 C 459.527 184.844, 459.879 186.853, 458.832 190.665 C 458.252 192.774, 457.464 194.725, 457.081 195 C 454.729 196.688, 453 200.994, 453 205.163 C 453 207.759, 452.550 210.160, 452 210.500 C 451.450 210.840, 450.993 212.554, 450.985 214.309 C 450.969 217.645, 449.136 223.794, 447.459 226.134 C 445.260 229.202, 443 233.907, 443 235.418 C 443 236.303, 442.604 237.809, 442.121 238.764 C 441.637 239.719, 440.442 242.931, 439.466 245.902 C 435.927 256.665, 429.539 266.273, 421.614 272.750 C 419.653 274.353, 413.553 274.362, 410.998 272.766 C 409.333 271.727, 408.699 271.857, 406.962 273.594 L 404.901 275.655 410.700 279.294 C 417.523 283.575, 426 291.049, 426 292.783 C 426 293.452, 426.361 294, 426.802 294 C 427.243 294, 429.120 297.037, 430.974 300.750 C 435.934 310.687, 436 310.841, 436 312.500 C 436 313.340, 436.401 314.809, 436.891 315.764 C 437.382 316.719, 438.519 320.200, 439.418 323.500 C 440.318 326.800, 441.689 331.750, 442.466 334.500 C 443.243 337.250, 444.408 341.525, 445.055 344 C 445.702 346.475, 446.611 349.625, 447.075 351 C 447.539 352.375, 448.194 355.300, 448.531 357.500 C 448.868 359.700, 449.499 362.400, 449.933 363.500 C 451.524 367.530, 452.833 372.614, 453.466 377.227 C 453.823 379.826, 454.540 382.215, 455.058 382.536 C 455.576 382.856, 456 383.913, 456 384.885 C 456 387.495, 459.949 390.741, 464.500 391.873 C 466.700 392.420, 471.200 393.526, 474.500 394.331 C 477.800 395.136, 487.964 396.563, 497.086 397.503 L 513.673 399.211 522.586 396.038 C 534.581 391.769, 537.599 391.052, 543.703 391.024 C 551.391 390.989, 557.908 387.394, 557.978 383.151 C 557.990 382.409, 558.633 380.384, 559.406 378.651 C 560.972 375.139, 562.675 370.124, 566.078 359 C 567.340 354.875, 568.686 351.050, 569.070 350.500 C 569.455 349.950, 570.103 347.940, 570.512 346.033 C 570.920 344.126, 571.609 341.876, 572.043 341.033 C 573.879 337.465, 576 332.114, 576 331.051 C 576 330.420, 576.900 328.041, 578 325.764 C 579.100 323.487, 580 321.262, 580 320.819 C 580 319.252, 583.483 312, 584.236 312 C 584.656 312, 585 311.370, 585 310.599 C 585 308.255, 593.505 297.720, 598.653 293.688 C 603.630 289.789, 614.649 283, 615.999 283 C 617.496 283, 631 276.541, 631 275.824 C 631 275.133, 627.276 275.353, 620.500 276.446 C 618.543 276.762, 616.794 276.334, 615.471 275.215 C 613.431 273.490, 610 267.146, 610 265.099 C 610 264.494, 609.550 264, 609 264 C 608.450 264, 608 263.507, 608 262.904 C 608 262.301, 606.450 258.542, 604.556 254.550 C 602.661 250.558, 600.788 246.002, 600.392 244.425 C 599.996 242.849, 598.889 240.196, 597.930 238.530 C 596.972 236.863, 595.879 233.138, 595.500 230.251 C 595.122 227.364, 594.405 224.750, 593.906 224.442 C 593.408 224.134, 593 222.777, 593 221.426 C 593 216.243, 589.698 206.495, 587.217 204.355 C 584.866 202.327, 584.756 201.773, 585.196 194.171 C 585.680 185.812, 586.303 184.470, 593.178 176.966 C 598.832 170.796, 616.035 162.326, 624.758 161.418 C 627.916 161.090, 631.923 160.389, 633.662 159.862 C 637.103 158.818, 652.368 161.061, 657 163.291 C 672.081 170.549, 680.010 184.946, 680.134 205.300 C 680.181 212.956, 679.821 215.258, 678.096 218.330 C 676.260 221.597, 676 223.712, 676 235.356 C 676 247.961, 676.120 248.764, 678.314 250.826 C 679.587 252.022, 681.361 253, 682.255 253 C 683.150 253, 684.117 253.380, 684.404 253.844 C 684.691 254.309, 692.030 254.960, 700.713 255.292 C 709.396 255.623, 717.850 256.322, 719.500 256.844 C 721.150 257.366, 725.200 258.556, 728.500 259.489 C 743.154 263.632, 759.812 271.327, 774.538 280.756 C 775.617 281.447, 777.175 282.315, 778 282.683 C 778.825 283.052, 779.725 283.634, 780 283.975 C 780.631 284.760, 800.528 299.062, 808.500 304.462 C 826.891 316.919, 831.525 321.016, 837.951 330.500 C 843.592 338.825, 846.065 344.140, 850.508 357.488 C 855.552 372.639, 858.646 397.261, 859.117 426 C 859.329 438.874, 861.040 445.204, 865.724 450.441 C 871.757 457.186, 872.915 458.815, 873.588 461.494 C 873.936 462.883, 874.622 464.266, 875.111 464.568 C 875.600 464.871, 876.007 466.329, 876.015 467.809 C 876.024 469.289, 876.394 471.072, 876.838 471.772 C 877.535 472.870, 876.670 480.361, 875.310 485 C 875.069 485.825, 874.909 486.617, 874.956 486.760 C 875.138 487.321, 871.947 492.607, 870.270 494.522 C 865.664 499.783, 862.273 501.189, 854.382 501.108 C 850.229 501.065, 845.093 500.509, 842.967 499.872 C 838.654 498.580, 829.211 490.151, 826.947 485.572 C 825.204 482.047, 825.180 460.420, 826.917 458.683 C 827.513 458.087, 828 455.692, 828 453.359 C 828 451.026, 828.450 448.840, 829 448.500 C 830.492 447.578, 830.208 440.568, 828.440 434.688 C 827.582 431.835, 826.406 427.700, 825.826 425.500 C 825.246 423.300, 824.418 420.600, 823.986 419.500 C 823.554 418.400, 822.418 414.800, 821.462 411.500 C 820.507 408.200, 819.430 405.050, 819.069 404.500 C 818.708 403.950, 817.582 401.025, 816.567 398 C 815.551 394.975, 814.333 392.073, 813.860 391.550 C 813.387 391.028, 813 389.592, 813 388.359 C 813 387.126, 812.550 385.840, 812 385.500 C 811.450 385.160, 811 384.189, 811 383.342 C 811 382.495, 810.378 380.384, 809.617 378.651 C 808.857 376.918, 807.662 373.925, 806.961 372 C 806.261 370.075, 804.633 366.124, 803.344 363.220 C 802.055 360.317, 801 357.566, 801 357.108 C 801 356.650, 798.510 355.983, 795.466 355.625 C 792.422 355.267, 788.935 354.460, 787.716 353.831 C 782.999 351.397, 781.974 351, 780.415 351 C 778.558 351, 774.316 349.205, 764.711 344.357 C 760.977 342.473, 757.602 341.128, 757.211 341.369 C 755.672 342.317, 759.627 380.435, 764.540 412 C 765.439 417.775, 766.521 424.975, 766.946 428 C 767.791 434.029, 769.009 437.825, 772.618 445.688 C 773.928 448.542, 775 451.372, 775 451.978 C 775 452.584, 775.876 454.796, 776.946 456.895 C 778.017 458.993, 779.201 463.035, 779.578 465.877 C 779.955 468.720, 780.654 471.286, 781.132 471.581 C 781.609 471.877, 782 473.801, 782 475.859 C 782 477.917, 782.530 480.130, 783.177 480.777 C 784.887 482.487, 784.952 513.448, 783.250 515.150 C 782.563 515.837, 782 517.408, 782 518.641 C 782 519.874, 781.601 521.129, 781.113 521.430 C 779.334 522.530, 778.866 528.958, 780.362 531.764 C 781.165 533.269, 782.497 536.075, 783.324 538 C 784.151 539.925, 786.017 544.200, 787.471 547.500 C 788.924 550.800, 790.494 554.400, 790.957 555.500 C 791.421 556.600, 792.746 559.633, 793.900 562.239 C 795.055 564.846, 796 567.237, 796 567.553 C 796 567.869, 797.128 570.595, 798.507 573.609 C 801.162 579.413, 804.499 588.249, 806.173 593.906 C 807.280 597.651, 806.429 606, 804.939 606 C 803.746 606, 803.701 610.697, 804.887 611.430 C 805.374 611.731, 806.070 613.558, 806.432 615.489 C 806.794 617.420, 807.520 619, 808.045 619 C 808.570 619, 809 619.475, 809 620.055 C 809 620.635, 809.905 623.097, 811.012 625.525 C 812.485 628.759, 814.631 631.033, 819.028 634.019 C 822.331 636.262, 825.464 637.831, 825.990 637.506 C 826.516 637.181, 827.674 635.247, 828.563 633.208 C 829.452 631.168, 830.893 628.150, 831.766 626.500 C 833.632 622.971, 834.391 621.383, 835.829 618 C 837.958 612.988, 841.328 605.362, 844.004 599.500 C 845.510 596.200, 848.192 589, 849.964 583.500 C 851.735 578, 853.593 572.719, 854.092 571.764 C 854.592 570.809, 855 569.211, 855 568.214 C 855 567.216, 855.367 565.972, 855.815 565.450 C 856.263 564.928, 857.429 561.125, 858.407 557 C 859.384 552.875, 860.450 548.825, 860.775 548 C 861.585 545.945, 863.995 535.276, 864.616 531 C 864.895 529.075, 865.510 526.600, 865.981 525.500 C 866.453 524.400, 867.607 520.055, 868.546 515.845 C 870.108 508.845, 870.737 507.689, 875.890 502.345 C 878.989 499.130, 882.698 494.025, 884.132 491 C 888.297 482.209, 890.245 471.888, 888 470.500 C 887.450 470.160, 887 468.585, 887 467 C 887 465.415, 886.550 463.840, 886 463.500 C 885.450 463.160, 885 462.121, 885 461.191 C 885 460.261, 882.707 455.922, 879.906 451.550 L 874.812 443.599 875.886 438.050 C 878.718 423.430, 879.922 334.130, 879.112 198.873 L 879 180.246 874.250 178.078 C 871.638 176.885, 865.900 173.908, 861.500 171.462 C 853.407 166.963, 850.139 165.341, 833 157.323 C 827.775 154.878, 822.306 152.231, 820.846 151.439 C 819.386 150.648, 817.473 150, 816.596 150 C 815.718 150, 815 149.550, 815 149 C 815 148.450, 814.310 148, 813.467 148 C 812.623 148, 809.713 146.875, 807 145.500 C 804.287 144.125, 801.557 143, 800.934 143 C 800.312 143, 798.159 142.279, 796.151 141.398 C 794.143 140.517, 791.600 139.446, 790.500 139.018 C 781.843 135.649, 779.120 134.568, 776.500 133.459 C 774.850 132.761, 771.475 131.621, 769 130.926 C 766.525 130.231, 764.073 129.289, 763.550 128.831 C 763.028 128.374, 761.592 128, 760.359 128 C 759.126 128, 757.856 127.576, 757.536 127.058 C 757.215 126.540, 754.933 125.813, 752.464 125.442 C 749.995 125.072, 747.729 124.371, 747.429 123.885 C 747.128 123.398, 746.060 123, 745.055 123 C 744.051 123, 741.940 122.328, 740.364 121.506 C 738.789 120.685, 736.481 120.010, 735.236 120.006 C 733.991 120.003, 732.191 119.605, 731.236 119.123 C 728.507 117.744, 722.891 116.140, 718.228 115.408 C 715.878 115.039, 713.714 114.346, 713.419 113.869 C 713.124 113.391, 711.585 113, 710 113 C 708.415 113, 706.877 112.609, 706.581 112.132 C 706.286 111.654, 703.672 110.958, 700.772 110.584 C 697.873 110.210, 694.150 109.506, 692.500 109.020 C 688.172 107.744, 682.550 106.411, 674 104.633 C 666.065 102.982, 664.211 102.631, 651.500 100.366 C 647.100 99.582, 641.250 98.536, 638.500 98.042 C 635.750 97.547, 629.900 96.671, 625.500 96.094 C 621.100 95.517, 616.361 94.796, 614.968 94.491 C 612.197 93.885, 598.907 92.526, 581 91.019 C 574.675 90.487, 567.475 89.775, 565 89.437 C 560.010 88.755, 467.089 87.806, 465.500 88.420 M 611.116 372.258 C 609.806 374.591, 607.659 378.408, 606.347 380.739 C 602.823 387, 599 393.914, 596.251 399 C 594.913 401.475, 593.184 404.210, 592.409 405.079 C 591.634 405.947, 591 407.115, 591 407.674 C 591 408.233, 590.100 409.505, 589 410.500 C 587.900 411.495, 587 412.878, 587 413.572 C 587 414.266, 586.659 414.983, 586.243 415.167 C 585.826 415.350, 583.913 417.516, 581.993 419.979 C 576.869 426.550, 571.725 431.253, 567.357 433.361 C 565.236 434.384, 562.807 435.567, 561.960 435.988 C 556.799 438.557, 546.222 438.054, 532 434.565 C 515.281 430.464, 513.368 430.373, 468.131 431.535 C 451.220 431.970, 443.430 431.830, 442.681 431.081 C 442.086 430.486, 440.816 430, 439.857 430 C 436.923 430, 426.315 419.307, 423.175 413.184 C 420.405 407.781, 416.607 400.739, 414.158 396.462 C 413.540 395.383, 411.442 391.012, 409.496 386.750 C 407.549 382.488, 405.524 379, 404.995 379 C 403.770 379, 400.087 386.374, 396.505 396 C 394.969 400.125, 393.383 403.950, 392.979 404.500 C 392.575 405.050, 391.903 406.625, 391.485 408 C 391.067 409.375, 389.661 412.834, 388.362 415.686 C 387.063 418.538, 386 421.112, 386 421.406 C 386 421.998, 382.830 429.084, 376.789 442 C 366.844 463.261, 364 469.593, 364 470.473 C 364 470.841, 363.325 471.818, 362.500 472.643 C 361.675 473.468, 361 474.984, 361 476.012 C 361 477.041, 360.550 478.160, 360 478.500 C 358.185 479.622, 358.934 480.850, 365.619 487.709 C 369.260 491.444, 375.656 498.550, 379.833 503.500 C 384.011 508.450, 390.369 515.652, 393.964 519.504 C 409.591 536.252, 428.352 558.131, 431.722 563.539 C 433.046 565.662, 435.050 569.859, 436.859 574.297 C 438.266 577.746, 438.364 587.657, 437 588.500 C 436.450 588.840, 436 589.924, 436 590.908 C 436 592.529, 429.986 604.796, 427.904 607.420 C 425.429 610.541, 415.491 622.570, 415.033 623 C 413.353 624.576, 408 632.024, 408 632.786 C 408 633.283, 407.100 634.505, 406 635.500 C 404.900 636.495, 404 637.915, 404 638.655 C 404 639.395, 403.622 640, 403.161 640 C 402.699 640, 401.815 641.013, 401.196 642.250 C 400.578 643.487, 398.640 646.975, 396.891 650 C 393.536 655.802, 392.467 657.903, 383.905 675.500 C 380.962 681.550, 378.275 686.725, 377.934 687 C 377.594 687.275, 375.332 691.318, 372.908 695.984 C 370.483 700.650, 368.008 704.999, 367.407 705.649 C 366.805 706.298, 365.706 708.330, 364.963 710.165 C 364.221 711.999, 363.289 713.728, 362.893 714.006 C 362.496 714.284, 360.470 718.109, 358.391 722.506 C 354.955 729.770, 354.607 731.276, 354.577 739 C 354.543 748.001, 355.784 751.294, 362.869 761 C 365.637 764.792, 380.481 780, 381.414 780 C 383.765 780, 395.794 792.898, 397.096 796.815 C 399.315 803.490, 396.064 810.452, 389.209 813.705 C 383.170 816.571, 370.654 814.821, 358.349 809.391 C 356.616 808.626, 354.703 808, 354.099 808 C 353.494 808, 353 807.619, 353 807.153 C 353 806.687, 352.153 805.899, 351.118 805.403 C 349.272 804.518, 345.411 801.550, 338.145 795.431 C 334.918 792.715, 330.536 790.111, 323.258 786.586 C 322.025 785.989, 321.012 785.163, 321.008 784.750 C 321.004 784.337, 320.506 784, 319.901 784 C 318.828 784, 313.232 781.746, 309.764 779.916 C 308.809 779.412, 307.505 779, 306.867 779 C 304.959 779, 297.081 772.058, 295.484 768.970 C 292.820 763.818, 294.231 743, 297.243 743 C 297.660 743, 298 742.422, 298 741.716 C 298 741.010, 300.495 737.972, 303.545 734.966 C 306.594 731.960, 310.268 727.475, 311.708 725 C 313.148 722.525, 314.624 720.275, 314.986 720 C 315.534 719.585, 316.756 717.154, 317.500 715 C 318.467 712.202, 320.905 706.181, 321.956 704 C 322.353 703.175, 323.472 699.800, 324.444 696.500 C 325.415 693.200, 326.470 689.825, 326.788 689 C 327.106 688.175, 327.930 685.025, 328.619 682 C 329.309 678.975, 330.329 674.700, 330.887 672.500 C 331.446 670.300, 332.361 666.250, 332.922 663.500 C 335.312 651.786, 342.633 630.714, 345.666 626.822 C 346.232 626.095, 347.777 623.478, 349.098 621.006 C 350.419 618.534, 352.282 615.642, 353.239 614.579 C 354.195 613.517, 355.238 611.827, 355.556 610.824 C 355.874 609.821, 356.554 609, 357.067 609 C 357.580 609, 358 608.500, 358 607.890 C 358 607.279, 359.991 604.817, 362.423 602.419 C 364.856 600.020, 367.143 597.123, 367.506 595.981 C 368.194 593.814, 366.572 591.004, 364.628 590.994 C 360.435 590.973, 341.011 583.580, 327.313 576.792 C 319.236 572.790, 318.958 572.728, 317.006 574.495 C 315.903 575.493, 315 576.670, 315 577.109 C 315 577.871, 307.301 588.696, 302.987 594 C 301.869 595.375, 298.985 599.200, 296.578 602.500 C 290.348 611.040, 287.157 613.995, 284.124 614.032 C 281.336 614.066, 278 616.067, 278 617.705 C 278 618.247, 277.111 619.494, 276.026 620.477 C 274.940 621.460, 273.753 623.217, 273.389 624.382 C 273.024 625.547, 271.329 628.525, 269.622 631 C 267.914 633.475, 265.700 637.009, 264.701 638.854 C 263.702 640.699, 262.348 642.932, 261.692 643.818 C 259.450 646.845, 241.907 664, 241.053 664 C 240.584 664, 238.016 665.471, 235.344 667.268 C 232.673 669.066, 226.375 672.976, 221.348 675.958 C 211.144 682.012, 211.333 681.413, 216.916 690 C 218.883 693.025, 220.719 695.977, 220.996 696.560 C 221.273 697.144, 222.068 698.269, 222.762 699.060 C 223.457 699.852, 226.157 703.719, 228.762 707.653 C 234.055 715.645, 250.706 737.693, 251.819 738.184 C 252.214 738.358, 253.567 739.850, 254.826 741.500 C 256.085 743.150, 259.011 746.525, 261.329 749 C 263.646 751.475, 267.174 755.525, 269.169 758 C 273.752 763.688, 313.121 802.934, 315.630 804.317 C 316.659 804.883, 319.975 807.700, 323 810.576 C 326.025 813.452, 330.907 817.761, 333.848 820.152 C 336.790 822.544, 341.311 826.300, 343.896 828.500 C 346.481 830.700, 349.883 833.400, 351.457 834.500 C 353.031 835.600, 355.935 837.854, 357.909 839.510 C 359.884 841.165, 363.750 844.077, 366.500 845.980 C 369.250 847.883, 372.351 850.222, 373.391 851.176 C 374.431 852.130, 379.779 855.969, 385.275 859.706 C 398.450 868.664, 400.224 869.835, 402 870.745 C 402.825 871.168, 406.144 873.311, 409.376 875.507 C 412.607 877.703, 415.999 879.950, 416.913 880.500 C 417.827 881.050, 421.110 883.188, 424.207 885.250 C 427.305 887.313, 430.288 889, 430.836 889 C 431.385 889, 431.983 889.398, 432.167 889.883 C 432.350 890.369, 436.100 892.691, 440.500 895.044 C 444.900 897.396, 449.406 899.811, 450.514 900.410 C 451.622 901.010, 453.872 902.460, 455.514 903.633 C 457.156 904.806, 460.750 906.879, 463.500 908.241 C 466.250 909.602, 472.550 913.021, 477.500 915.840 C 482.450 918.658, 486.846 920.972, 487.270 920.982 C 487.693 920.992, 489.901 922.175, 492.176 923.611 C 498.292 927.472, 505.131 931, 506.500 931 C 507.161 931, 509.682 929.939, 512.101 928.641 C 527.066 920.617, 530.625 918.647, 531.691 917.800 C 532.346 917.279, 535.721 915.383, 539.191 913.587 C 542.661 911.790, 547.300 909.275, 549.500 907.997 C 551.700 906.719, 554.625 905.047, 556 904.281 C 557.375 903.515, 559.850 902.038, 561.500 901 C 563.150 899.962, 565.625 898.478, 567 897.704 C 579.670 890.566, 585.193 887.258, 589.252 884.375 C 591.866 882.519, 594.219 881, 594.482 881 C 594.988 881, 611.112 870.388, 619.500 864.534 C 622.250 862.615, 625.850 860.119, 627.500 858.988 C 629.150 857.857, 636.069 852.785, 642.875 847.716 C 649.681 842.647, 656.278 837.825, 657.534 837 C 658.790 836.175, 664.196 831.900, 669.547 827.500 C 674.897 823.100, 680.676 818.403, 682.388 817.063 C 684.099 815.723, 687.975 812.414, 691 809.709 C 694.025 807.005, 699.616 802.027, 703.424 798.646 C 709.966 792.840, 732.194 770.942, 734.627 767.906 C 735.247 767.133, 736.597 765.768, 737.627 764.872 C 738.657 763.977, 741.618 760.827, 744.206 757.872 C 746.795 754.918, 751.070 750.075, 753.706 747.111 C 759.615 740.469, 760.288 739.663, 766.485 731.814 C 769.226 728.341, 771.723 725.275, 772.033 725 C 773.582 723.625, 785.737 707.156, 786.878 704.886 C 787.601 703.448, 789.274 701.106, 790.596 699.680 C 791.918 698.254, 793 696.800, 793 696.448 C 793 696.096, 793.926 694.508, 795.059 692.918 L 797.117 690.026 794.729 687.638 C 793.415 686.324, 789.676 683.776, 786.420 681.975 C 783.164 680.174, 780.350 678.318, 780.167 677.850 C 779.983 677.383, 779.348 677, 778.756 677 C 777.371 677, 764.563 667.313, 760 662.816 C 758.075 660.918, 754.476 656.696, 752.003 653.433 C 749.529 650.170, 747.279 647.275, 747.003 647 C 746.490 646.490, 745.457 644.712, 741.877 638.177 C 738.098 631.276, 731.997 622.159, 728.761 618.574 C 727.805 617.514, 726.762 615.827, 726.444 614.824 C 726.126 613.821, 725.446 613, 724.933 613 C 724.420 613, 724 612.564, 724 612.031 C 724 611.206, 716.470 599.464, 715.002 598 C 714.726 597.725, 713.964 596.600, 713.309 595.500 C 706.579 584.200, 703.332 580.017, 701.283 580.009 C 699.530 580.002, 690.507 586.760, 688 589.959 C 686.609 591.734, 680.956 595, 679.276 595 C 678.222 595, 675.520 593.425, 673.271 591.500 C 671.022 589.575, 668.770 588, 668.267 588 C 666.682 588, 648.896 600.108, 648.335 601.568 C 647.911 602.675, 652.307 609.558, 654.999 612 C 656.924 613.746, 666.246 627.421, 668.633 632 C 670.210 635.025, 671.837 637.650, 672.250 637.833 C 672.663 638.017, 673.003 638.917, 673.006 639.833 C 673.010 640.750, 673.685 642.789, 674.506 644.364 C 675.328 645.940, 676 648.051, 676 649.055 C 676 650.060, 676.450 651.160, 677 651.500 C 677.550 651.840, 678 653.190, 678 654.500 C 678 655.810, 678.472 657.173, 679.048 657.530 C 679.624 657.886, 680.005 658.925, 679.894 659.839 C 679.783 660.752, 679.934 662.175, 680.228 663 C 680.523 663.825, 681.236 666.300, 681.812 668.500 C 684.522 678.838, 687.859 690.393, 689.033 693.500 C 689.448 694.600, 690.570 697.750, 691.526 700.500 C 692.481 703.250, 693.654 705.928, 694.131 706.450 C 694.609 706.973, 695 708.033, 695 708.807 C 695 709.581, 696.282 712.978, 697.850 716.357 C 699.417 719.736, 701.503 724.300, 702.486 726.500 C 703.469 728.700, 707.206 733.471, 710.792 737.102 C 714.377 740.734, 718.387 745.622, 719.703 747.965 C 722.255 752.507, 723.777 762.770, 722.596 767.472 C 721.608 771.411, 715.311 777.019, 707.427 780.982 C 696.987 786.229, 693.321 788.997, 683.663 798.920 C 678.802 803.914, 674.610 808, 674.346 808 C 674.082 808, 672.434 809.089, 670.683 810.420 C 658.087 819.995, 642.170 825.531, 634.509 823.003 C 628.472 821.011, 625.154 810.920, 628.506 804.750 C 629.328 803.237, 630.616 800.863, 631.370 799.474 C 633.040 796.394, 638.327 790.057, 642.849 785.716 C 650.747 778.132, 660.422 763.266, 663.511 753.968 C 665.209 748.856, 664.967 739.991, 663.025 736.089 C 662.589 735.215, 661.796 733.375, 661.262 732 C 660.026 728.820, 647.958 704.946, 644.581 699 C 643.175 696.525, 641.472 693.375, 640.796 692 C 640.121 690.625, 638.607 688.150, 637.434 686.500 C 636.260 684.850, 634.294 681.475, 633.066 679 C 628.378 669.555, 620.877 656.880, 612.500 644.249 C 609.750 640.102, 606.214 634.644, 604.641 632.120 C 603.069 629.595, 600.699 626.173, 599.376 624.515 C 595.663 619.862, 595.661 619.860, 591.458 613.668 C 586.375 606.179, 586.351 606.138, 584.688 602 C 583.914 600.075, 582.768 597.241, 582.141 595.703 C 580.776 592.358, 580.622 579.689, 581.916 577.236 C 582.420 576.281, 583.566 573.700, 584.463 571.500 C 585.361 569.300, 586.534 566.825, 587.071 566 C 587.607 565.175, 588.980 563.038, 590.122 561.250 C 591.263 559.462, 592.573 558, 593.031 558 C 593.490 558, 594.125 557.181, 594.443 556.179 C 594.761 555.177, 596.401 552.947, 598.087 551.222 C 599.774 549.497, 602.356 546.513, 603.827 544.589 C 605.297 542.666, 611.894 534.904, 618.487 527.340 C 628.562 515.781, 635.447 507.584, 642.297 498.991 C 642.959 498.162, 645.611 494.994, 648.192 491.951 C 653.443 485.762, 653.420 486.174, 649.250 473 C 648.119 469.425, 646.735 464.700, 646.176 462.500 C 643.528 452.084, 641.582 445.859, 640.827 445.393 C 640.372 445.112, 640 443.930, 640 442.766 C 640 440.816, 636.080 428.162, 634.031 423.500 C 633.548 422.400, 632.250 418.575, 631.147 415 C 628.065 405.011, 625.592 398.123, 623.883 394.764 C 623.397 393.809, 623 392.303, 623 391.418 C 623 390.533, 622.380 388.614, 621.622 387.154 C 619.775 383.598, 618.626 380.604, 616.478 373.750 C 615.486 370.587, 614.411 368.004, 614.088 368.008 C 613.764 368.013, 612.427 369.925, 611.116 372.258 M 492 590.065 C 489.525 590.504, 485.352 591.178, 482.727 591.564 C 480.102 591.950, 477.713 592.656, 477.418 593.133 C 477.123 593.610, 476.021 594, 474.968 594 C 473.916 594, 470.455 595.179, 467.277 596.620 C 457.979 600.837, 455.236 602, 454.589 602 C 453.612 602, 444.066 608.820, 436.830 614.688 C 425.684 623.726, 413.674 638.768, 407.438 651.500 C 405.822 654.800, 404.163 657.650, 403.750 657.833 C 403.337 658.017, 403 658.748, 403 659.459 C 403 660.170, 401.956 663.170, 400.680 666.126 C 398.565 671.024, 397.231 676.147, 393.940 692.007 C 392.140 700.681, 394.114 728.287, 397.053 735.546 C 398.629 739.439, 399.816 742.495, 400.821 745.250 C 402.307 749.325, 408.348 761.425, 410.930 765.500 C 419.205 778.560, 431.348 791.109, 444.034 799.713 C 465.819 814.486, 486.546 820.758, 510 819.673 C 522.194 819.109, 528.860 818.243, 530.500 817.012 C 531.050 816.599, 533.300 815.937, 535.500 815.541 C 537.700 815.145, 539.950 814.495, 540.500 814.096 C 541.050 813.698, 544.650 812.080, 548.500 810.501 C 552.350 808.922, 557.075 806.607, 559 805.356 C 567.470 799.853, 574.526 794.754, 574.833 793.912 C 575.017 793.411, 575.558 793, 576.037 793 C 577.376 793, 589.046 781.111, 593.215 775.500 C 595.259 772.750, 597.685 769.726, 598.608 768.781 C 599.530 767.836, 600.863 766.036, 601.570 764.781 C 604.499 759.582, 611 746.370, 611 745.616 C 611 745.168, 611.637 743.384, 612.416 741.651 C 613.195 739.918, 614.112 736.925, 614.454 735 C 614.796 733.075, 615.520 729.250, 616.063 726.500 C 619.363 709.789, 617.888 683.930, 612.924 671.500 C 612.485 670.400, 611.834 668.375, 611.477 667 C 610.499 663.230, 604.181 650.032, 601.184 645.500 C 597.336 639.679, 587.666 626.949, 584.623 623.698 C 583.180 622.158, 581.983 620.583, 581.962 620.198 C 581.941 619.814, 579.855 617.925, 577.326 616 C 574.797 614.075, 572.014 611.712, 571.142 610.750 C 570.269 609.788, 569.158 609, 568.672 609 C 568.186 609, 566.374 607.868, 564.644 606.485 C 562.915 605.102, 561.050 603.633, 560.500 603.222 C 559.610 602.556, 555.637 600.820, 548 597.758 C 546.625 597.207, 544.306 596.136, 542.846 595.378 C 541.386 594.620, 539.275 594, 538.155 594 C 537.035 594, 535.877 593.609, 535.581 593.132 C 535.063 592.293, 523.714 590.490, 521.325 590.868 C 520.679 590.970, 519.865 590.591, 519.516 590.027 C 518.776 588.829, 498.813 588.857, 492 590.065 M 533.263 620.572 C 531.609 622.400, 530.398 622.887, 528.616 622.440 C 526.215 621.837, 517.322 626.041, 505.750 633.250 L 501 636.208 501 650.412 L 501 664.615 505.750 667.983 C 516.494 675.599, 540.250 690, 542.071 690 C 543.147 690, 544.809 689.588, 545.764 689.085 C 546.719 688.582, 550.605 687.389, 554.400 686.434 C 566.544 683.377, 570.359 681.672, 571.113 678.966 C 571.491 677.610, 571.845 669.272, 571.900 660.439 C 571.987 646.438, 571.775 644.128, 570.245 642.439 C 569.279 641.372, 566.917 638.644, 564.995 636.376 C 560.768 631.387, 550.679 622.886, 546.355 620.670 C 544.625 619.783, 541.475 618.842, 539.355 618.578 C 536.175 618.183, 535.109 618.532, 533.263 620.572 M 465.300 621.951 C 454.204 626.988, 441.408 637.950, 434.300 648.507 C 430.590 654.017, 430.271 655.011, 430.447 660.507 C 430.552 663.803, 430.720 671.797, 430.819 678.271 C 431.037 692.443, 430.055 691.610, 448 692.865 C 461.900 693.838, 463.327 693.497, 468.500 687.977 C 470.150 686.215, 476.569 680.509, 482.764 675.296 C 488.959 670.083, 494.412 665.071, 494.881 664.159 C 495.351 663.246, 495.825 656.322, 495.936 648.771 L 496.136 635.043 487.762 629.641 C 479.181 624.105, 471.693 619.983, 470.290 620.022 C 469.855 620.034, 467.610 620.902, 465.300 621.951 M 562 690.073 C 558.975 691.090, 553.800 692.651, 550.500 693.543 C 547.200 694.435, 543.825 695.514, 543 695.941 C 541.395 696.772, 538.789 706.012, 536.072 720.500 C 535.454 723.800, 534.509 728.419, 533.974 730.764 C 531.985 739.473, 532.386 740.597, 540.750 749.772 C 545.013 754.447, 549.744 759.649, 551.264 761.332 C 553.922 764.274, 554.172 764.343, 557.764 763.138 C 566.410 760.237, 574.948 756.332, 581.691 752.195 C 588.371 748.096, 588.992 747.417, 590.429 742.641 C 591.984 737.471, 595 718.403, 595 713.742 C 595 711.923, 591.976 708.075, 583.903 699.621 C 571.584 686.721, 571.755 686.795, 562 690.073 M 430.490 697.791 C 428.986 698.862, 424.642 705.675, 420.515 713.437 C 416.471 721.039, 416.377 722.674, 419.372 733.314 C 422.594 744.764, 433.394 763.425, 437.306 764.304 C 438.513 764.575, 442.650 765.312, 446.500 765.942 C 450.350 766.572, 455.750 767.476, 458.500 767.951 C 464.585 769.002, 464.760 768.845, 468.492 759 C 470.056 754.875, 472.385 749.821, 473.668 747.770 C 476.029 743.993, 476.657 740.184, 475.204 738.450 C 474.766 737.928, 473.815 735.700, 473.089 733.500 C 472.363 731.300, 471.199 728.150, 470.502 726.500 C 469.805 724.850, 468.664 721.925, 467.967 720 C 467.270 718.075, 466.147 715.150, 465.472 713.500 C 464.797 711.850, 463.323 708.250, 462.198 705.500 L 460.151 700.500 451.826 699.400 C 437.495 697.508, 431.521 697.057, 430.490 697.791 M 494.457 745.084 C 484.137 746.006, 480.218 747.211, 479.322 749.735 C 478.978 750.706, 478.163 752.175, 477.512 753 C 476.861 753.825, 474.832 758.189, 473.003 762.699 L 469.678 770.898 473.828 776.199 C 476.111 779.114, 481.318 785.041, 485.401 789.370 L 492.823 797.239 509.162 796.729 C 518.148 796.449, 527.075 795.674, 529 795.009 C 531.584 794.115, 533.808 791.936, 537.500 786.683 C 543.443 778.225, 548 770.230, 548 768.262 C 548 766.901, 543.064 760.844, 532.605 749.370 L 527.710 744 515.605 744.138 C 508.947 744.213, 499.431 744.639, 494.457 745.084" stroke="none" fill="#ffffffff" fill-rule="evenodd"/></svg>